<svg width="612" height="873" viewBox="0 0 612 873" fill="none" xmlns="http://www.w3.org/2000/svg">
<path d="M224.281 10.4353C37.2316 63.878 -52.5521 268.029 31.8873 448.665C60.7464 510.659 294.825 873 306.583 873C315.133 873 546.006 521.347 575.934 463.629C618.688 380.259 622.963 264.822 587.691 186.796C522.491 46.7763 367.507 -29.1123 224.281 10.4353ZM413.468 59.6026C466.911 83.1174 519.284 134.422 550.281 193.209C583.416 256.272 582.347 368.501 548.143 434.77C502.183 522.416 308.72 809.938 301.238 801.387C271.31 768.252 89.6054 483.937 65.0218 430.495C15.8545 326.816 24.4054 241.308 93.8808 142.973C160.15 49.9829 307.652 11.5042 413.468 59.6026Z" fill="#006BD2"/>
<path d="M228.557 142.973C158.013 177.177 109.915 268.029 123.81 340.711C151.6 490.351 330.098 547 435.915 441.183C524.63 352.469 500.046 206.036 386.748 148.318C331.167 120.527 277.725 118.39 228.557 142.973ZM381.403 188.934C400.643 200.691 424.158 226.344 432.708 245.583L449.81 279.787L417.744 289.406C392.092 296.888 380.335 294.75 354.682 276.58C316.203 247.721 290.551 246.652 258.485 274.442C232.833 296.888 198.629 301.164 174.046 286.2C162.288 278.718 163.357 270.167 182.597 238.101C196.492 216.724 220.007 192.141 234.97 183.59C276.656 161.144 340.787 164.35 381.403 188.934ZM265.967 356.744C291.62 385.603 296.964 418.737 280.931 443.321C273.449 456.147 265.967 455.078 239.246 441.183C203.974 423.013 156.944 355.675 167.633 338.573C181.528 316.128 241.384 326.816 265.967 356.744ZM444.466 336.436C462.636 365.295 362.164 468.974 333.305 450.803C314.066 439.046 321.548 378.121 346.131 352.469C368.577 327.885 432.708 317.196 444.466 336.436Z" fill="#006BD2"/>
</svg>
