<svg width="20" height="20" viewBox="0 0 20 20" fill="none" xmlns="http://www.w3.org/2000/svg">
<path d="M17.2169 1.74835C16.2089 0.742087 14.5765 0.742087 13.5685 1.74835L12.6552 2.66664L2.93329 12.3834L2.91263 12.4042C2.90762 12.4092 2.90762 12.4145 2.9023 12.4145C2.89197 12.43 2.87647 12.4453 2.8663 12.4608C2.8663 12.466 2.86097 12.466 2.86097 12.4712C2.85064 12.4867 2.84564 12.497 2.83515 12.5125C2.83014 12.5177 2.83014 12.5227 2.82498 12.528C2.81981 12.5435 2.81465 12.5538 2.80932 12.5693C2.80932 12.5743 2.80432 12.5743 2.80432 12.5796L0.647323 19.066C0.584048 19.2506 0.63215 19.4551 0.771129 19.5922C0.868785 19.6885 1.0005 19.7424 1.13754 19.742C1.19355 19.741 1.24908 19.7323 1.30267 19.7161L7.78398 17.554C7.78898 17.554 7.78898 17.554 7.79431 17.549C7.81061 17.5441 7.82627 17.5372 7.84064 17.5282C7.84467 17.5277 7.84822 17.5259 7.85113 17.5231C7.86646 17.5128 7.88713 17.5023 7.90262 17.492C7.91796 17.4818 7.93361 17.4663 7.94911 17.456C7.95427 17.4507 7.95928 17.4507 7.95928 17.4457C7.9646 17.4405 7.97494 17.4355 7.9801 17.425L18.6153 6.78983C19.6215 5.7818 19.6215 4.1494 18.6153 3.14153L17.2169 1.74835ZM7.61885 16.3413L4.02736 12.7499L13.0164 3.76088L16.6079 7.35221L7.61885 16.3413ZM3.52148 13.7045L6.65908 16.842L1.94769 18.4106L3.52148 13.7045ZM17.8878 6.06734L17.3407 6.61954L13.7491 3.02789L14.3014 2.47585C14.9056 1.87216 15.8849 1.87216 16.4893 2.47585L17.8928 3.87935C18.4924 4.48628 18.4902 5.46332 17.8878 6.06734Z" fill="#9C9C9C"/>
</svg>
