<svg width="22" height="22" viewBox="0 0 22 22" fill="none" xmlns="http://www.w3.org/2000/svg">
<path d="M21.2086 20.6039L15.5375 14.9326C16.7809 13.4418 17.5312 11.5262 17.5312 9.4375C17.5312 4.69883 13.6762 0.84375 8.9375 0.84375C4.19883 0.84375 0.34375 4.69883 0.34375 9.4375C0.34375 14.1762 4.19883 18.0313 8.9375 18.0313C11.0262 18.0313 12.9418 17.2809 14.4326 16.0375L20.1039 21.7088C20.2564 21.8613 20.4564 21.9377 20.6562 21.9377C20.8561 21.9377 21.0561 21.8613 21.2086 21.7088C21.5139 21.4035 21.5139 20.909 21.2086 20.6039ZM1.90625 9.4375C1.90625 5.56055 5.06016 2.40625 8.9375 2.40625C12.8148 2.40625 15.9688 5.56055 15.9688 9.4375C15.9688 13.3145 12.8148 16.4688 8.9375 16.4688C5.06016 16.4688 1.90625 13.3145 1.90625 9.4375Z" fill="#9E9E9E"/>
</svg>
