<?xml version="1.0" encoding="utf-8"?><svg width="20" height="20" fill="none" xmlns="http://www.w3.org/2000/svg" viewBox="0 0 20 20"><path d="M17.217 1.748a2.582 2.582 0 00-3.648 0l-.914.919-9.722 9.716-.02.021c-.005.005-.005.01-.01.01-.011.016-.027.031-.037.047 0 .005-.005.005-.005.01-.01.016-.015.026-.026.041-.005.006-.005.01-.01.016l-.016.041c0 .005-.005.005-.005.01L.647 19.067a.508.508 0 00.124.526.52.52 0 00.532.124l6.481-2.162c.005 0 .005 0 .01-.005a.19.19 0 00.047-.02.018.018 0 00.01-.006c.015-.01.036-.02.052-.031.015-.01.03-.026.046-.036.005-.005.01-.005.01-.01.006-.006.016-.01.021-.021L18.615 6.79a2.582 2.582 0 000-3.648l-1.398-1.394zM7.619 16.341L4.027 12.75l8.99-8.99 3.59 3.592-8.988 8.99zM3.52 13.704l3.138 3.138-4.711 1.569 1.573-4.707zm14.367-7.637l-.547.553-3.592-3.592.552-.552a1.548 1.548 0 012.188 0l1.404 1.403c.6.607.597 1.584-.005 2.188z" fill="#9C9C9C"/></svg>