<?xml version="1.0" encoding="utf-8"?><svg width="22" height="22" fill="none" xmlns="http://www.w3.org/2000/svg" viewBox="0 0 22 22"><path d="M21.209 20.604l-5.671-5.671a8.552 8.552 0 001.993-5.495c0-4.74-3.855-8.594-8.593-8.594C4.197.844.344 4.699.344 9.438c0 4.738 3.855 8.593 8.594 8.593 2.088 0 4.004-.75 5.495-1.993l5.67 5.67a.779.779 0 001.106 0 .78.78 0 000-1.104zM1.906 9.438a7.04 7.04 0 017.032-7.032 7.04 7.04 0 017.03 7.031 7.04 7.04 0 01-7.03 7.032 7.04 7.04 0 01-7.032-7.032z" fill="#9E9E9E"/></svg>