<?xml version="1.0" encoding="utf-8"?><svg viewBox="0 0 28 28" xmlns="http://www.w3.org/2000/svg" xmlns:xlink="http://www.w3.org/1999/xlink"><style>:root>svg{display:none}:root>svg:target{display:block}</style><svg fill="none" viewBox="0 0 12 8" id="ic__dropdown-10" xmlns="http://www.w3.org/2000/svg"><path d="M11.125 1l-5 5-5-5" stroke="#006BD2" stroke-width="2"/></svg><svg fill="none" viewBox="0 0 28 28" id="ic_account-28" xmlns="http://www.w3.org/2000/svg"><path d="M20.77 14.159a.873.873 0 00-1.437.284.875.875 0 00.207.96A7.82 7.82 0 0121.875 21c0 1.07-3.068 2.625-7.875 2.625s-7.875-1.556-7.875-2.627a7.821 7.821 0 012.305-5.567.875.875 0 10-1.237-1.237A9.56 9.56 0 004.375 21c0 2.842 4.959 4.375 9.625 4.375s9.625-1.533 9.625-4.375a9.556 9.556 0 00-2.855-6.841z" fill="#fff"/><path d="M14 14.875A6.125 6.125 0 107.875 8.75 6.132 6.132 0 0014 14.875zm0-10.5a4.375 4.375 0 110 8.75 4.375 4.375 0 010-8.75z" fill="#fff"/></svg><svg fill="none" transform="scale(-1)" viewBox="0 0 8 12" id="ic_arrow-left-10" xmlns="http://www.w3.org/2000/svg"><path d="M1 1.25l5 5-5 5" stroke="#006BD2" stroke-width="2"/></svg><svg fill="none" viewBox="0 0 8 12" id="ic_arrow-right-10" xmlns="http://www.w3.org/2000/svg"><path d="M1 1.25l5 5-5 5" stroke="#006BD2" stroke-width="2"/></svg><svg fill="none" viewBox="0 0 20 21" id="ic_expand-20" xmlns="http://www.w3.org/2000/svg"><path stroke="#006BD2" d="M10.5.207v20M0 9.707h20"/></svg></svg>