<?xml version="1.0" encoding="utf-8"?><svg viewBox="0 0 28 28" xmlns="http://www.w3.org/2000/svg" xmlns:xlink="http://www.w3.org/1999/xlink"><style>:root>svg{display:none}:root>svg:target{display:block}</style><svg fill="none" viewBox="0 0 12 8" id="ic__dropdown-10" xmlns="http://www.w3.org/2000/svg"><path d="M11.125 1l-5 5-5-5" stroke="#006BD2" stroke-width="2"/></svg><svg fill="none" viewBox="0 0 28 28" id="ic_account-28" xmlns="http://www.w3.org/2000/svg"><path d="M20.77 14.159a.873.873 0 00-1.437.284.875.875 0 00.207.96A7.82 7.82 0 0121.875 21c0 1.07-3.068 2.625-7.875 2.625s-7.875-1.556-7.875-2.627a7.821 7.821 0 012.305-5.567.875.875 0 10-1.237-1.237A9.56 9.56 0 004.375 21c0 2.842 4.959 4.375 9.625 4.375s9.625-1.533 9.625-4.375a9.556 9.556 0 00-2.855-6.841z" fill="#fff"/><path d="M14 14.875A6.125 6.125 0 107.875 8.75 6.132 6.132 0 0014 14.875zm0-10.5a4.375 4.375 0 110 8.75 4.375 4.375 0 010-8.75z" fill="#fff"/></svg><svg fill="none" transform="scale(-1)" viewBox="0 0 8 12" id="ic_arrow-left-10" xmlns="http://www.w3.org/2000/svg"><path d="M1 1.25l5 5-5 5" stroke="#006BD2" stroke-width="2"/></svg><svg fill="none" viewBox="0 0 8 12" id="ic_arrow-right-10" xmlns="http://www.w3.org/2000/svg"><path d="M1 1.25l5 5-5 5" stroke="#006BD2" stroke-width="2"/></svg><svg fill="none" viewBox="0 0 27 28" id="ic_close" xmlns="http://www.w3.org/2000/svg"><path stroke="#2E2B28" stroke-linecap="round" d="M6.88 20.173L19.673 7.38M7.068 7.639l12.793 12.793"/></svg><svg fill="none" viewBox="0 0 12 7" id="ic_dropdown-bl" xmlns="http://www.w3.org/2000/svg"><path d="M1.063 1l4.875 4.5L10.813 1" stroke="#000"/></svg><svg fill="none" viewBox="0 0 20 20" id="ic_edit" xmlns="http://www.w3.org/2000/svg"><path d="M17.217 1.748a2.582 2.582 0 00-3.648 0l-.914.919-9.722 9.716-.02.021c-.005.005-.005.01-.01.01-.011.016-.027.031-.037.047 0 .005-.005.005-.005.01-.01.016-.015.026-.026.041-.005.006-.005.01-.01.016l-.016.041c0 .005-.005.005-.005.01L.647 19.067a.508.508 0 00.124.526.52.52 0 00.532.124l6.481-2.162c.005 0 .005 0 .01-.005a.19.19 0 00.047-.02.018.018 0 00.01-.006c.015-.01.036-.02.052-.031.015-.01.03-.026.046-.036.005-.005.01-.005.01-.01.006-.006.016-.01.021-.021L18.615 6.79a2.582 2.582 0 000-3.648l-1.398-1.394zM7.619 16.341L4.027 12.75l8.99-8.99 3.59 3.592-8.988 8.99zM3.52 13.704l3.138 3.138-4.711 1.569 1.573-4.707zm14.367-7.637l-.547.553-3.592-3.592.552-.552a1.548 1.548 0 012.188 0l1.404 1.403c.6.607.597 1.584-.005 2.188z" fill="#9C9C9C"/></svg><svg fill="none" viewBox="0 0 20 21" id="ic_expand-20" xmlns="http://www.w3.org/2000/svg"><path stroke="#006BD2" d="M10.5.207v20M0 9.707h20"/></svg><svg fill="none" viewBox="0 0 22 22" id="ic_search" xmlns="http://www.w3.org/2000/svg"><path d="M21.209 20.604l-5.671-5.671a8.552 8.552 0 001.993-5.495c0-4.74-3.855-8.594-8.593-8.594C4.197.844.344 4.699.344 9.438c0 4.738 3.855 8.593 8.594 8.593 2.088 0 4.004-.75 5.495-1.993l5.67 5.67a.779.779 0 001.106 0 .78.78 0 000-1.104zM1.906 9.438a7.04 7.04 0 017.032-7.032 7.04 7.04 0 017.03 7.031 7.04 7.04 0 01-7.03 7.032 7.04 7.04 0 01-7.032-7.032z" fill="#9E9E9E"/></svg></svg>